<?xml version="1.0" encoding="utf-8"?>
<!-- Generator: Adobe Illustrator 21.0.1, SVG Export Plug-In . SVG Version: 6.00 Build 0)  -->
<svg version="1.1" id="Layer_1" xmlns="http://www.w3.org/2000/svg" xmlns:xlink="http://www.w3.org/1999/xlink" x="0px" y="0px"
	 viewBox="0 0 177.7 26" style="enable-background:new 0 0 177.7 26;" xml:space="preserve">
<style type="text/css">
	.st0{fill:#007DC4;}
	.st1{fill:#0C3B60;}
	.st2{fill:#0F9AD6;}
	.st3{fill:#6FC2E7;}
	.st4{fill:#FFFFFF;}
</style>
<g>
	<polygon class="st0" points="10.4,7.7 10.4,14.6 20.8,10.7 20.8,3.9 	"/>
	<polygon class="st1" points="10.4,7.7 10.4,0.2 20.8,3.9 	"/>
	<polygon class="st2" points="5.4,16.4 5.4,2.1 0.1,4.1 0.1,25.1 20.8,17.4 20.8,14.3 15.9,12.5 	"/>
	<polygon class="st3" points="20.8,25.1 20.8,17.4 10.4,21.2 	"/>
	<g>
		<path class="st4" d="M38.5,14.6c-0.1-7,5.4-11.3,11.6-11C56,3.8,61.1,8,60.9,15.1c-0.2,6.3-5.1,10.8-11.8,10.6
			C43.4,25.4,38.4,21.3,38.5,14.6z M44,14.6c0.1,0.7,0.1,1.3,0.3,2c1.1,4.1,6,4.8,8.8,2.7c1.8-1.4,2.3-3.3,2.1-5.4
			c-0.2-2.1-1.1-3.8-3.1-4.6C50,8.4,47.9,8.4,46,9.9C44.5,11.1,44.1,12.8,44,14.6z"/>
		<path class="st4" d="M99,25.1c0,0.3-0.3,0.4-0.6,0.3c-0.2-0.1-0.3-0.2-0.5-0.3c-3.3-3.1-6.6-6.3-9.9-9.4c-0.2-0.2-0.3-0.3-0.6-0.6
			c0,3.4,0,6.6,0,9.9h-5.4V3.7c0.5-0.2,0.8,0,1.1,0.3c3.3,3.1,6.5,6.2,9.8,9.4c0.2,0.2,0.4,0.3,0.7,0.6c0-3.4,0-6.6,0-9.9H99V25.1z"
			/>
		<path class="st4" d="M59.4,25.2c0.6-1.3,1.2-2.6,1.8-3.8c2.7-5.7,5.4-11.4,8.1-17.1c0.1-0.2,0.2-0.4,0.4-0.5
			c0.4-0.2,0.6,0,0.8,0.4c1.4,3,2.8,6,4.2,9c1.8,3.7,3.5,7.5,5.3,11.2c0.1,0.3,0.2,0.5,0.4,0.9c-1.9,0-3.8,0-5.6,0
			c-0.1,0-0.3-0.2-0.4-0.3c-0.3-0.7-0.6-1.3-0.9-2c-0.1-0.3-0.3-0.5-0.7-0.5c-2,0-3.9,0-5.9,0c-0.4,0-0.6,0.1-0.7,0.5
			c-0.3,0.7-0.6,1.4-0.9,2.1c-0.1,0.1-0.2,0.3-0.3,0.3C63.1,25.2,61.3,25.2,59.4,25.2z M67.9,17.9c1.3,0,2.5,0,3.8,0
			c-0.6-1.5-1.3-3-1.9-4.6C69.1,15,68.5,16.4,67.9,17.9z"/>
		<path class="st4" d="M26,4.1c1.7,0,3.5,0,5.3,0c0,5.4,0,10.9,0,16.3c2.4,0,4.7,0,7,0c0,1.6,0,3.2,0,4.7c-4.1,0-8.2,0-12.3,0
			C26,18.1,26,11.1,26,4.1z"/>
	</g>
	<g id="MlLce0_8_">
		<g>
			<path class="st2" d="M142.3,14.6c0.1,7.1-5.6,11-11.3,11c-6.4,0-11.1-4.7-11.1-10.9c0-6.6,4.6-11.2,11.2-11.2
				C136.9,3.6,142.4,7.6,142.3,14.6z M131.5,20.4c1.5,0,3.2-0.8,4.3-2.5c0.9-1.4,1-3,0.8-4.7c-0.7-4.7-6.3-5.6-9-3.4
				c-1.8,1.4-2.2,3.5-2,5.6C125.8,18.5,128,20.4,131.5,20.4z"/>
			<path class="st2" d="M177.3,6.4c-1,1.3-2,2.5-3,3.8c-0.2-0.2-0.4-0.3-0.5-0.4c-1.5-1.2-3.2-1.6-5.1-1.2c-0.4,0.1-0.8,0.3-1.1,0.6
				c-0.6,0.6-0.5,1.6,0.2,2c0.7,0.4,1.5,0.6,2.3,0.8c1.2,0.4,2.3,0.6,3.5,1c3.1,1.2,4.1,3.7,3.7,6.7c-0.5,3.2-2.7,5.1-5.8,5.7
				c-3.9,0.7-7.4-0.1-10.4-2.8c-0.1-0.1-0.3-0.2-0.4-0.3c1.1-1.4,2.1-2.7,3.1-4c0.4,0.3,0.8,0.7,1.2,0.9c1.7,1.2,3.5,1.7,5.6,1.3
				c0.1,0,0.2,0,0.3-0.1c0.6-0.3,1-0.7,1.1-1.4c0-0.7-0.4-1.1-1-1.3c-0.9-0.3-1.8-0.5-2.7-0.8c-1-0.3-2-0.5-2.9-0.9
				c-2.2-0.9-3.4-2.6-3.5-4.9c-0.3-4,2.3-6.6,5.6-7.3c3.3-0.7,6.4-0.3,9.2,1.8c0.2,0.1,0.4,0.3,0.5,0.5
				C177.2,6.3,177.2,6.3,177.3,6.4z"/>
			<path class="st2" d="M159.4,6.3c-1,1.3-2,2.5-3,3.8c-0.4-0.3-0.7-0.5-1-0.7c-1.4-1-3-1.2-4.6-0.8c-0.4,0.1-0.8,0.3-1.1,0.6
				c-0.6,0.6-0.5,1.5,0.3,2c0.5,0.3,1.1,0.5,1.7,0.7c1.3,0.4,2.7,0.7,4.1,1.2c3.1,1.1,4.1,3.6,3.6,6.7c-0.5,3.3-2.7,5-5.8,5.6
				c-3.9,0.8-7.5-0.2-10.5-2.9c-0.1-0.1-0.1-0.1-0.2-0.2c1-1.3,2-2.6,3-3.9c0.4,0.3,0.8,0.7,1.2,1c1.7,1.2,3.5,1.7,5.5,1.3
				c0.1,0,0.2,0,0.3-0.1c0.6-0.2,1.1-0.6,1.1-1.3c0-0.6-0.3-1.1-1-1.4c-1.2-0.4-2.5-0.7-3.8-1.1c-0.9-0.3-1.9-0.6-2.7-1.1
				c-1.5-0.9-2.4-2.2-2.6-4c-0.5-3.8,1.4-6.6,5-7.6c2.3-0.7,4.7-0.6,7,0.2C157.1,4.5,158.5,5.4,159.4,6.3z"/>
		</g>
	</g>
	<g>
		<path class="st2" d="M116,14.4c-0.2-0.1-0.5-0.3-0.9-0.5c1.2-0.7,1.9-1.6,2.2-2.9c0.7-2.9-0.5-5.5-3.3-6.4
			c-1.1-0.4-2.3-0.6-3.5-0.6c-1.1,0-2.3-0.1-3.4-0.1v0h-4.9v0c0,0.6,0,1.3,0,1.9c0,5.8,0,11.5,0,17.3c0,0.6,0,1.3,0,1.9v0h7.3v0
			c0.5,0,1,0,1.6,0c0.8,0,1.7-0.1,2.5-0.3c3-0.6,4.7-2.7,4.8-5.7C118.5,17.1,117.8,15.4,116,14.4z M107.6,8.7h3c0.1,0,0.3,0,0.4,0.1
			c0.8,0.1,1.1,0.8,1.2,1.6c0,0.9-0.3,1.6-1.1,1.7c-0.2,0-0.3,0.1-0.5,0.1h-3C107.6,11,107.6,9.9,107.6,8.7z M111.5,20.3h-3.9
			c0-1.2,0-2.3,0-3.7h3.9c0,0,0.1,0,0.1,0c1,0.1,1.4,1,1.4,1.9C113,19.5,112.4,20.2,111.5,20.3z"/>
	</g>
</g>
</svg>
