<?xml version="1.0" encoding="utf-8"?>
<!-- Generator: Adobe Illustrator 21.0.1, SVG Export Plug-In . SVG Version: 6.00 Build 0)  -->
<svg version="1.1" id="Layer_1" xmlns="http://www.w3.org/2000/svg" xmlns:xlink="http://www.w3.org/1999/xlink" x="0px" y="0px"
	 viewBox="0 0 420.7 60.7" style="enable-background:new 0 0 420.7 60.7;" xml:space="preserve">
<g>
	<polygon style="fill:#007DC4;" points="25.2,18 25.2,34.2 49.7,25.1 49.7,9.1 	"/>
	<polygon style="fill:#005AA9;" points="25.2,18.1 25.2,0.3 49.7,9.1 	"/>
	<polygon style="fill:#0F9AD6;" points="13.4,38.6 13.4,4.7 0.9,9.5 0.9,59 49.7,40.8 49.7,33.6 38.2,29.4 	"/>
	<polygon style="fill:#E6E7E8;" points="49.7,59 49.7,40.8 25.2,49.9 	"/>
	<g>
		<path style="fill:#E6E7E8;" d="M91.5,34.2c-0.1-16.6,12.6-26.6,27.5-26c13.7,0.6,25.9,10.4,25.4,27.1
			c-0.5,14.8-12.1,25.5-27.8,24.9C103.2,59.8,91.3,50.1,91.5,34.2z M104.6,34.2c0.2,1.6,0.3,3.2,0.7,4.7c2.6,9.8,14.3,11.4,20.8,6.5
			c4.3-3.2,5.4-7.7,5-12.8c-0.4-5-2.6-8.9-7.3-10.9c-5-2.1-10-2-14.5,1.6C105.8,26,104.8,29.9,104.6,34.2z"/>
		<path style="fill:#E6E7E8;" d="M234.3,59c0,0.7-0.7,1-1.3,0.8c-0.4-0.1-0.8-0.4-1.1-0.7c-7.8-7.4-15.5-14.8-23.3-22.1
			c-0.4-0.4-0.8-0.7-1.5-1.3c0,8,0,15.7,0,23.5h-12.7V8.6c1.1-0.5,1.8,0.1,2.5,0.8c7.7,7.4,15.4,14.7,23.1,22.1
			c0.4,0.4,0.9,0.8,1.6,1.4c0-8,0-15.7,0-23.4h12.6V59z"/>
		<path style="fill:#E6E7E8;" d="M140.9,59.2c1.5-3.2,2.9-6.1,4.3-9.1c6.4-13.5,12.8-27,19.2-40.4c0.2-0.4,0.5-1,0.9-1.2
			c0.9-0.4,1.4,0.1,1.8,0.9c3.3,7.1,6.6,14.2,10,21.3c4.1,8.8,8.3,17.7,12.5,26.5c0.3,0.6,0.6,1.3,0.9,2c-4.6,0-8.9,0-13.3,0
			c-0.3,0-0.8-0.5-0.9-0.8c-0.7-1.6-1.4-3.2-2-4.8c-0.3-0.8-0.7-1.1-1.7-1.1c-4.6,0-9.2,0-13.8,0c-0.9,0-1.4,0.2-1.7,1.1
			c-0.6,1.7-1.4,3.3-2.1,4.9c-0.1,0.3-0.5,0.7-0.8,0.7C149.7,59.2,145.4,59.2,140.9,59.2z M160.9,42.1c3.1,0,6,0,9.1,0
			c-1.5-3.6-3-7-4.6-10.8C163.8,35.2,162.4,38.6,160.9,42.1z"/>
		<path style="fill:#E6E7E8;" d="M62.2,9.4c4.1,0,8.2,0,12.6,0c0,12.8,0,25.6,0,38.6c5.6,0,11,0,16.4,0c0,3.8,0,7.4,0,11.2
			c-9.7,0-19.3,0-29,0C62.2,42.6,62.2,26,62.2,9.4z"/>
	</g>
	<g id="MlLce0_8_">
		<g>
			<path style="fill:#0F9AD6;" d="M336.4,34.2c0.2,16.7-13.1,26-26.6,26c-15.1,0-26.2-11-26.3-25.8C283.6,19,294.5,8,310,8.1
				C323.8,8.3,336.7,17.8,336.4,34.2z M311,48c3.6-0.1,7.5-1.8,10.2-5.9c2.2-3.4,2.4-7.1,1.8-11c-1.8-11.2-14.9-13.2-21.3-8.1
				c-4.3,3.4-5.2,8.2-4.7,13.3C297.6,43.5,302.7,48,311,48z"/>
			<path style="fill:#0F9AD6;" d="M419.1,15c-2.4,3.1-4.7,6-7,9c-0.5-0.4-0.9-0.7-1.2-0.9c-3.6-2.8-7.6-3.8-12-2.7
				c-0.9,0.2-1.9,0.7-2.5,1.4c-1.5,1.5-1.3,3.7,0.5,4.6c1.7,0.9,3.6,1.4,5.4,2c2.7,0.9,5.5,1.5,8.2,2.5c7.3,2.8,9.7,8.6,8.6,15.8
				c-1.1,7.6-6.5,12-13.7,13.4c-9.2,1.7-17.4-0.3-24.5-6.7c-0.3-0.2-0.6-0.4-1-0.6c2.6-3.3,4.9-6.3,7.4-9.4c1,0.8,1.9,1.5,2.8,2.2
				c4,2.9,8.3,4.1,13.2,3c0.2-0.1,0.5-0.1,0.7-0.2c1.5-0.6,2.5-1.6,2.5-3.2c0.1-1.7-1-2.7-2.3-3.2c-2.1-0.7-4.2-1.2-6.3-1.9
				c-2.3-0.7-4.6-1.3-6.8-2.2c-5.1-2.1-7.9-6-8.4-11.7c-0.7-9.5,5.4-15.5,13.1-17.1c7.8-1.7,15.1-0.6,21.6,4.3
				c0.4,0.3,0.9,0.7,1.3,1.1C418.8,14.6,418.9,14.8,419.1,15z"/>
			<path style="fill:#0F9AD6;" d="M376.8,14.7c-2.3,3-4.6,6-7,9c-0.9-0.6-1.6-1.2-2.5-1.8c-3.4-2.2-7-2.8-10.9-1.9
				c-0.9,0.2-1.9,0.8-2.5,1.4c-1.5,1.5-1.2,3.6,0.6,4.7c1.2,0.7,2.6,1.2,4,1.6c3.2,1,6.5,1.7,9.6,2.8c7.2,2.7,9.7,8.6,8.6,15.8
				c-1.2,7.7-6.3,11.9-13.6,13.3c-9.3,1.8-17.7-0.4-24.8-6.9c-0.2-0.2-0.3-0.3-0.5-0.6c2.4-3,4.7-6.1,7.2-9.2c1,0.8,1.9,1.6,2.9,2.3
				c3.9,2.8,8.2,4,13,3c0.2,0,0.5-0.1,0.7-0.2c1.4-0.6,2.5-1.5,2.6-3.2c0.1-1.5-0.6-2.7-2.4-3.3c-2.9-1-6-1.6-8.9-2.6
				c-2.2-0.7-4.4-1.4-6.4-2.6c-3.5-2-5.6-5.3-6.1-9.3c-1.1-8.9,3.3-15.5,11.7-18c5.5-1.6,11-1.4,16.5,0.4
				C371.4,10.5,374.7,12.6,376.8,14.7z"/>
		</g>
	</g>
	<g>
		<path style="fill:#0F9AD6;" d="M274.5,33.8c-0.6-0.3-1.2-0.6-2-1.1c2.8-1.6,4.5-3.8,5.3-6.7c1.7-6.9-1.2-12.9-7.8-15.1
			c-2.6-0.9-5.5-1.4-8.3-1.5c-2.7-0.1-5.4-0.1-8.1-0.1v0h-11.5v0.1c0,1.5,0,3,0,4.5c0,13.6,0,27.2,0,40.8c0,1.5,0,3,0,4.5v0.1h17.2
			v0c1.2,0,2.5,0,3.7,0c2,0,3.9-0.3,5.8-0.7c7-1.5,11.1-6.3,11.3-13.5C280.2,40.2,278.7,36.3,274.5,33.8z M254.5,20.4h7
			c0.3,0,0.7,0.1,1,0.1c1.9,0.3,2.7,2,2.7,3.9c0,2.1-0.7,3.7-2.6,4.1c-0.4,0.1-0.7,0.1-1.1,0.2h-7C254.5,25.7,254.5,23.2,254.5,20.4
			z M263.7,47.8h-9.2c0-2.8,0-5.5,0-8.6h9.2c0.1,0,0.2,0,0.3,0c2.3,0.3,3.4,2.3,3.3,4.5C267.2,45.7,265.8,47.6,263.7,47.8z"/>
	</g>
</g>
</svg>
