<svg width="137" height="24" viewBox="0 0 137 24" fill="none" xmlns="http://www.w3.org/2000/svg">
<path d="M9.82495 7.2362V13.8597L19.732 10.1391V3.59735L9.82495 7.2362Z" fill="#007DC4"/>
<path d="M9.82495 7.27769V0L19.732 3.59796L9.82495 7.27769Z" fill="#005AA9"/>
<path d="M5.05461 15.6589V1.79858L0 3.76111V23.9996L19.7332 16.5584V13.6146L15.083 11.8974L5.05461 15.6589Z" fill="#0F9AD6"/>
<path d="M19.732 24.0001V16.5588L9.82495 20.2795L19.732 24.0001Z" fill="#005AA9"/>
<path d="M38.7776 11.9607C38.7477 6.93292 42.552 3.90414 47.0153 4.08587C51.1191 4.26759 54.7736 7.23579 54.6239 12.2938C54.4741 16.7764 50.9993 20.0172 46.2963 19.8355C42.2824 19.7143 38.7177 16.7764 38.7776 11.9607ZM42.7017 11.9607C42.7616 12.4453 42.7916 12.9299 42.9114 13.3842C43.6903 16.3524 47.195 16.837 49.1421 15.3529C50.4302 14.3837 50.7597 13.0208 50.6398 11.4761C50.52 9.96169 49.861 8.78047 48.4531 8.17471C46.9554 7.53867 45.4576 7.56896 44.1096 8.65932C43.0612 9.47709 42.7616 10.6583 42.7017 11.9607Z" fill="black"/>
<path d="M81.5534 19.4726C81.5534 19.6846 81.3437 19.7754 81.164 19.7149C81.0442 19.6846 80.9243 19.5937 80.8345 19.5028C78.498 17.2615 76.1914 15.0203 73.8549 12.8092C73.7351 12.6881 73.6153 12.5972 73.4056 12.4155C73.4056 14.8385 73.4056 17.1707 73.4056 19.5331H69.6013V4.20753C69.9308 4.05609 70.1405 4.23781 70.3502 4.44983C72.6567 6.69112 74.9633 8.90213 77.2698 11.1434C77.3896 11.2646 77.5394 11.3857 77.7491 11.5674C77.7491 9.14443 77.7491 6.81227 77.7491 4.48012H81.5234V19.4726H81.5534Z" fill="black"/>
<path d="M53.5763 19.5322C54.0257 18.563 54.445 17.6846 54.8644 16.776C56.7815 12.6872 58.6987 8.59832 60.6158 4.53976C60.6757 4.41861 60.7656 4.23688 60.8854 4.17631C61.155 4.05516 61.3047 4.20659 61.4246 4.4489C62.4131 6.59933 63.4016 8.74976 64.4201 10.9002C65.6482 13.5655 66.9064 16.2611 68.1645 18.9264C68.2543 19.1082 68.3442 19.3202 68.4341 19.5322C67.0561 19.5322 65.7681 19.5322 64.45 19.5322C64.3602 19.5322 64.2104 19.3808 64.1804 19.2899C63.9708 18.8053 63.7611 18.3207 63.5813 17.8361C63.4915 17.5938 63.3717 17.5029 63.0721 17.5029C61.6942 17.5029 60.3162 17.5029 58.9383 17.5029C58.6687 17.5029 58.5189 17.5635 58.4291 17.8361C58.2493 18.351 58.0097 18.8356 57.8 19.3202C57.77 19.411 57.6502 19.5322 57.5604 19.5322C56.2124 19.5322 54.9243 19.5322 53.5763 19.5322ZM59.5674 14.353C60.496 14.353 61.3647 14.353 62.2933 14.353C61.8439 13.2626 61.3946 12.2328 60.9153 11.0819C60.436 12.2631 60.0167 13.2929 59.5674 14.353Z" fill="black"/>
<path d="M30 4.44992C31.2282 4.44992 32.4563 4.44992 33.7743 4.44992C33.7743 8.32675 33.7743 12.2036 33.7743 16.141C35.4518 16.141 37.0694 16.141 38.687 16.141C38.687 17.2919 38.687 18.3823 38.687 19.5332C35.7813 19.5332 32.9056 19.5332 30 19.5332C30 14.5055 30 9.47769 30 4.44992Z" fill="black"/>
<path d="M112.137 11.9614C112.197 17.0195 108.213 19.8362 104.169 19.8362C99.646 19.8362 96.321 16.5046 96.291 12.022C96.321 7.35766 99.5861 4.02601 104.229 4.0563C108.363 4.11687 112.227 6.99421 112.137 11.9614ZM104.529 16.1411C105.607 16.1108 106.775 15.5959 107.584 14.3541C108.243 13.3243 108.303 12.2037 108.123 11.0225C107.584 7.63025 103.66 7.0245 101.743 8.56917C100.455 9.59896 100.185 11.0528 100.335 12.5974C100.515 14.7782 102.042 16.1411 104.529 16.1411Z" fill="black"/>
<path d="M136.911 6.1453C136.192 7.08422 135.503 7.96256 134.814 8.8712C134.664 8.75005 134.544 8.65918 134.454 8.59861C133.376 7.75055 132.178 7.44767 130.86 7.78084C130.59 7.84141 130.29 7.99285 130.111 8.20487C129.661 8.65918 129.721 9.32551 130.26 9.5981C130.77 9.87069 131.339 10.0221 131.878 10.2039C132.687 10.4764 133.526 10.6582 134.334 10.9611C136.521 11.8091 137.24 13.5658 136.911 15.7465C136.581 18.0484 134.963 19.381 132.807 19.8051C130.051 20.32 127.594 19.7142 125.468 17.7758C125.378 17.7152 125.288 17.6546 125.168 17.5941C125.947 16.5946 126.636 15.6859 127.385 14.747C127.684 14.9893 127.954 15.2013 128.224 15.4133C129.422 16.2917 130.71 16.6551 132.178 16.322C132.238 16.2917 132.327 16.2917 132.387 16.2614C132.837 16.0797 133.136 15.7768 133.136 15.2922C133.166 14.7773 132.837 14.4744 132.447 14.323C131.818 14.111 131.189 13.9595 130.56 13.7475C129.871 13.5355 129.182 13.3538 128.523 13.0812C126.995 12.4452 126.157 11.2639 126.007 9.53753C125.797 6.66019 127.624 4.84293 129.931 4.35832C132.267 3.84343 134.454 4.1766 136.401 5.6607C136.521 5.75156 136.671 5.87271 136.791 5.99386C136.821 6.02415 136.851 6.08472 136.911 6.1453Z" fill="black"/>
<path d="M124.239 6.055C123.55 6.96363 122.861 7.87226 122.142 8.78089C121.873 8.59917 121.663 8.41744 121.393 8.23571C120.375 7.56938 119.296 7.38766 118.128 7.66025C117.859 7.72082 117.559 7.90255 117.379 8.08428C116.93 8.53859 117.02 9.17463 117.559 9.5078C117.918 9.71981 118.338 9.87125 118.757 9.9924C119.716 10.2953 120.704 10.5073 121.633 10.8405C123.79 11.6582 124.539 13.4452 124.209 15.6259C123.85 17.9581 122.322 19.2302 120.135 19.6542C117.349 20.1994 114.833 19.533 112.706 17.5643C112.646 17.5038 112.616 17.4735 112.556 17.3826C113.275 16.474 113.964 15.5351 114.713 14.5961C115.013 14.8384 115.282 15.0807 115.582 15.2928C116.75 16.1408 118.038 16.5043 119.476 16.2014C119.536 16.2014 119.626 16.1711 119.686 16.1408C120.105 15.9591 120.435 15.6865 120.465 15.1716C120.495 14.7173 120.285 14.3538 119.746 14.1721C118.877 13.8692 117.948 13.6875 117.08 13.3846C116.421 13.1726 115.762 12.9606 115.163 12.5972C114.114 11.9914 113.485 10.9919 113.335 9.78039C113.006 7.08478 114.324 5.08579 116.84 4.32859C118.488 3.84399 120.135 3.90457 121.783 4.44975C122.621 4.78291 123.61 5.41895 124.239 6.055Z" fill="black"/>
<path d="M93.5964 11.8399C93.4167 11.749 93.2369 11.6581 92.9973 11.5067C93.8361 11.0221 94.3453 10.3558 94.5849 9.47743C95.0942 7.38757 94.2255 5.57031 92.2484 4.90398C91.4696 4.63139 90.6009 4.47995 89.7621 4.44966C88.9534 4.41937 88.1446 4.41937 87.3358 4.41937H83.8909V4.44966C83.8909 4.90398 83.8909 5.35829 83.8909 5.81261C83.8909 9.93174 83.8909 14.0509 83.8909 18.17C83.8909 18.6243 83.8909 19.0786 83.8909 19.533V19.5632H89.0432C89.4027 19.5632 89.7921 19.5632 90.1516 19.5632C90.7507 19.5632 91.3198 19.4724 91.889 19.3512C93.9858 18.8969 95.214 17.4431 95.2739 15.2624C95.3039 13.7783 94.8545 12.5971 93.5964 11.8399ZM87.6054 7.78131H89.7022C89.7921 7.78131 89.9119 7.8116 90.0018 7.8116C90.5709 7.90246 90.8106 8.41736 90.8106 8.99282C90.8106 9.62887 90.6009 10.1135 90.0318 10.2346C89.9119 10.2649 89.8221 10.2649 89.7022 10.2952H87.6054C87.6054 9.38656 87.6054 8.62937 87.6054 7.78131ZM90.3613 16.0802H87.6054C87.6054 15.2321 87.6054 14.4143 87.6054 13.4754H90.3613C90.3912 13.4754 90.4212 13.4754 90.4511 13.4754C91.1401 13.5663 91.4696 14.172 91.4396 14.8384C91.4097 15.4441 90.9903 16.0196 90.3613 16.0802Z" fill="black"/>
</svg>
